<svg xmlns="http://www.w3.org/2000/svg" style="position:absolute; width: 0; height: 0">

<symbol viewBox="0 0 409.165 409.164" id="icon-user"><path d="M204.583 216.671c50.664 0 91.74-48.075 91.74-107.378 0-82.237-41.074-107.377-91.74-107.377-50.668 0-91.74 25.14-91.74 107.377.001 59.303 41.073 107.378 91.74 107.378zm202.581 158.046L360.88 270.454a23.23 23.23 0 0 0-10.465-11.138l-71.83-37.392a4.628 4.628 0 0 0-4.926.415c-20.316 15.366-44.203 23.488-69.076 23.488-24.877 0-48.762-8.122-69.078-23.488a4.635 4.635 0 0 0-4.93-.415L58.75 259.316a23.222 23.222 0 0 0-10.465 11.138L2.001 374.717a23.059 23.059 0 0 0 1.75 22.005 23.056 23.056 0 0 0 19.4 10.526h362.861a23.063 23.063 0 0 0 19.402-10.527 23.063 23.063 0 0 0 1.75-22.004z"></path></symbol>

<symbol viewBox="0 0 418 418" id="icon-delete"><g>
	<path d="M265.616,38V0H152.384v38H69v60h280V38H265.616z M182.384,30h53.232v8h-53.232V30z"/>
	<polygon points="109,418 309,418 328.016,128 89.984,128"/>
</g></symbol>

<symbol viewBox="0 0 528.899 528.899" id="icon-edit"><g>
	<path d="M328.883,89.125l107.59,107.589l-272.34,272.34L56.604,361.465L328.883,89.125z M518.113,63.177l-47.981-47.981   c-18.543-18.543-48.653-18.543-67.259,0l-45.961,45.961l107.59,107.59l53.611-53.611   C532.495,100.753,532.495,77.559,518.113,63.177z M0.3,512.69c-1.958,8.812,5.998,16.708,14.811,14.565l119.891-29.069   L27.473,390.597L0.3,512.69z" />
</g>
</symbol>


</svg>